<svg width="740" height="782" viewBox="0 0 740 782" fill="none" xmlns="http://www.w3.org/2000/svg">
<mask id="mask0" mask-type="alpha" maskUnits="userSpaceOnUse" x="0" y="0" width="741" height="782">
<rect x="0.309082" y="0.166992" width="740" height="781.833" fill="white"/>
</mask>
<g mask="url(#mask0)">
<path fill-rule="evenodd" clip-rule="evenodd" d="M767.127 203.788L740.309 782L168.915 802L767.127 203.788Z" fill="#008FFF"/>
<path d="M0.309082 872L160.128 712.181C165.754 706.555 173.384 703.395 181.341 703.395H256.385C264.341 703.395 271.972 700.234 277.598 694.608L597.185 375.021C602.811 369.395 605.972 361.764 605.972 353.808V195.206C605.972 187.25 609.132 179.619 614.759 173.993L744.584 44.167" stroke="white" stroke-width="10"/>
<rect x="394.078" y="292.471" width="288" height="288" rx="144" fill="white"/>
<path fill-rule="evenodd" clip-rule="evenodd" d="M536.147 423.504C533.494 423.165 531.782 424.55 530.015 425.484C509.277 436.446 493.999 453.144 481.2 472.365C479.608 474.757 478.775 477.655 477.601 480.323C477.112 481.435 476.32 482.296 475.078 482.011C473.899 481.74 473.884 480.571 474.061 479.601C479.605 449.284 488.158 420.385 513.965 400.38C527.244 390.087 542.802 385.678 559.447 384.947C571.856 384.402 584.205 384.99 596.398 387.565C597.953 387.893 600.021 387.834 600.462 389.858C600.859 391.676 599.109 392.414 597.952 393.355C584.755 404.091 576.285 417.927 574.038 434.632C569.671 467.112 547.2 485.457 517.158 491.024C507.823 492.753 498.401 493.327 488.919 492.122C480.763 491.086 479.42 489.261 483.355 481.828C495.284 459.295 511.195 440.301 533.174 426.838C534.004 426.329 534.835 425.822 535.64 425.277C535.848 425.137 538.8 423.843 536.147 423.504Z" fill="#13CE67"/>
<path d="M477.116 495.229L356.423 615.923C350.797 621.549 347.636 629.18 347.636 637.136V712.573C347.636 720.53 344.475 728.161 338.849 733.787L248.383 824.253" stroke="white" stroke-width="10"/>
<path d="M764.138 103L676.924 190.213C671.298 195.839 668.138 203.47 668.138 211.426V385.612C668.138 393.568 664.977 401.199 659.351 406.825L443.916 622.26C438.29 627.886 435.129 635.516 435.129 643.473V735.57C435.129 743.526 431.969 751.157 426.342 756.783L310.867 872.258" stroke="white" stroke-width="10"/>
<path d="M746.476 423.7L522.916 647.26C517.29 652.886 514.129 660.516 514.129 668.473V755.898C514.129 764.109 510.764 771.961 504.817 777.624L477.116 804" stroke="white" stroke-width="10"/>
<path d="M668.14 317L668.136 316.617C668.046 308.546 671.213 300.779 676.921 295.072L754.584 217.408" stroke="white" stroke-width="10"/>
</g>
</svg>
