<svg xmlns="http://www.w3.org/2000/svg" width="148" height="25" viewBox="0 0 148 25">
    <g fill="none" fill-rule="evenodd">
        <g>
            <g>
                <g>
                    <path fill="#FFF" d="M73.977 10.668c1.18 1.017 1.823 2.346 2.118 3.86.13.664.15 1.333.152 2.003v.805c0 .134.001.268.004.402.005.238-.137.205-.282.205h-4.23c-1.857 0-3.714.002-5.572-.004-.237-.001-.346.007-.31.317.24 1.993 1.616 3.224 3.713 3.25 1.299.017 2.434-.338 3.113-1.568.078-.142.195-.123.315-.123.95 0 1.902.009 2.853-.006.274-.004.281.09.217.31-.646 2.215-2.18 3.52-4.312 4.204-.489.157-.992.264-1.51.277-.051.001-.116-.016-.127.066h-1.343c-.277-.152-.594-.124-.891-.189-2.908-.629-4.996-2.863-5.417-5.81-.253-1.774-.228-3.533.476-5.207 1.082-2.571 3.042-4.016 5.818-4.309 1.937-.204 3.715.222 5.215 1.517zm59.555-.8c1.69.796 2.546 2.21 2.734 4.05.02.197-.019.271-.24.269-1.019-.013-2.037-.008-3.055-.004-.148 0-.234-.008-.263-.2-.15-.99-.748-1.565-1.714-1.768-.791-.167-1.58-.158-2.348.11-.772.27-1.186.967-1.047 1.692.082.428.353.686.737.84.752.303 1.55.418 2.343.539 1.038.157 2.072.333 3.086.608.785.212 1.456.621 2.02 1.2.578.591.786 1.335.827 2.138.14 2.752-1.393 4.16-3.64 4.912-.604.203-1.23.324-1.87.346-.054.001-.115-.008-.132.066h-1.545c-.438-.155-.907-.148-1.354-.264-1.195-.312-2.305-.782-3.193-1.67-.822-.82-1.176-1.849-1.297-2.979-.023-.219.054-.257.255-.255 1.04.01 2.081.005 3.122.003.136 0 .26-.016.3.173.23 1.094 1.001 1.616 2.017 1.848.955.217 1.908.214 2.835-.146.448-.174.778-.47.902-.96.164-.645-.068-1.139-.687-1.369-.778-.29-1.596-.416-2.41-.561-.988-.177-1.98-.35-2.931-.677-1.275-.438-2.38-1.138-2.749-2.517-.574-2.15-.102-4.508 2.537-5.57 2.257-.91 4.543-.899 6.76.146zm-16.587-.514c1.007.017 2.014.013 3.021.002.224-.003.308.044.308.29-.008 4.8-.007 9.602-.001 14.403 0 .222-.064.282-.285.28-.996-.013-1.992-.015-2.988 0-.246.004-.295-.08-.29-.305.016-.547.006-1.095.006-1.74-.302.381-.542.699-.829.978-.752.73-1.649 1.121-2.692 1.206-1.087.09-2.146-.012-3.136-.491-1.57-.76-2.416-2.064-2.726-3.747-.1-.54-.135-1.085-.134-1.635.005-2.966.007-5.931-.004-8.897-.001-.285.081-.349.354-.344.984.017 1.97.018 2.954 0 .274-.006.324.081.324.334-.01 2.91-.006 5.82-.006 8.73 0 .348.043.689.118 1.029.297 1.362 1.422 1.887 2.626 1.831 1.505-.07 2.576-1.215 2.902-2.872.11-.561.155-1.128.154-1.7-.002-2.338.003-4.677-.007-7.016 0-.26.06-.341.33-.336zM94.53 3.98c.27-.002.331.077.327.335-.014.973-.017 1.947.002 2.92.005.275-.083.326-.336.325-1.992-.01-3.984 0-5.977-.013-.291-.002-.368.063-.367.363.01 5.35.006 10.7.014 16.05 0 .281-.047.378-.357.37-1.03-.023-2.06-.018-3.089-.001-.266.004-.328-.07-.328-.33.008-5.35.003-10.7.014-16.05 0-.319-.066-.407-.396-.404-1.959.018-3.917.002-5.876.017-.291.002-.345-.086-.34-.355.017-.95.023-1.903-.002-2.853-.009-.325.103-.375.393-.374 2.72.01 5.439.006 8.159.006 2.72 0 5.44.005 8.159-.006zm-45.202 7.518c.033-.03.07-.05.088-.08.835-1.424 2.093-2.156 3.722-2.284 1.515-.119 2.946.098 4.176 1.074 1 .794 1.488 1.872 1.65 3.114.06.456.068.914.068 1.373-.004 3.09-.007 6.18.006 9.269 0 .3-.074.372-.369.366-.984-.02-1.97-.02-2.955 0-.276.004-.325-.087-.325-.339.009-3.022.007-6.045.003-9.067 0-.267-.02-.538-.071-.8-.278-1.434-1.368-1.88-2.696-1.721-1.38.164-2.22 1.09-2.39 2.528-.045.379-.066.757-.065 1.138.003 2.642-.002 5.284.007 7.925.001.254-.05.34-.324.335-.996-.018-1.992-.018-2.988 0-.27.005-.327-.076-.326-.333.009-3.044.013-6.09.001-9.134-.003-.882-.206-1.7-1.052-2.18-1.457-.826-3.372-.097-3.916 1.482-.21.611-.263 1.245-.264 1.883-.004 2.63-.01 5.261.007 7.892.002.337-.094.398-.406.39-.974-.02-1.948-.013-2.922-.002-.223.002-.306-.04-.306-.289.008-4.802.007-9.604 0-14.406 0-.224.067-.28.284-.277 1.007.01 2.015.012 3.022-.002.234-.003.276.08.272.289-.012.57-.004 1.14-.004 1.8 1.498-3.358 6.843-2.903 8.073.056zM0 3.979c2.796.003 5.592.002 8.388.01 1.18.003 2.339.14 3.426.645 2.138.995 3.22 2.72 3.418 5.022.119 1.375-.123 2.7-.81 3.911-1.05 1.853-2.696 2.83-4.76 3.168-.606.1-1.221.119-1.836.118-1.23-.002-2.462.007-3.692-.007-.257-.002-.337.057-.335.327.011 2.249-.003 4.498.016 6.746.003.357-.104.417-.428.412-1.129-.018-2.258-.003-3.387 0V3.98zM26.659 9.2c.177-.006.227.05.226.226-.008 1.03-.008 2.06 0 3.089.002.19-.073.217-.236.216-.58-.006-1.165-.038-1.739.082-1.587.331-2.485 1.277-2.753 2.881-.075.453-.112.908-.112 1.367.001 2.305-.004 4.61.007 6.916.001.272-.056.36-.343.354-1.007-.019-2.015-.013-3.022-.002-.218.002-.282-.056-.281-.279.006-4.8.006-9.601 0-14.402 0-.203.03-.296.269-.292 1.029.013 2.059.01 3.088 0 .206-.001.27.054.264.263-.014.581-.005 1.163-.005 1.745.32-.442.62-.879 1.036-1.225.732-.611 1.585-.896 2.527-.933.357-.013.716.007 1.074-.006zm77.202.001c.595.014.595.003.595.592 0 .873-.013 1.746.007 2.618.007.278-.087.33-.337.322-.727-.024-1.455-.022-2.159.204-1.33.426-1.979 1.412-2.229 2.721-.09.473-.12.952-.119 1.434.003 2.305-.002 4.61.006 6.916.001.238-.039.328-.306.323-1.018-.018-2.036-.013-3.055-.002-.214.002-.284-.05-.284-.276.007-4.812.007-9.624 0-14.436 0-.213.065-.262.267-.26 1.03.01 2.059.01 3.088 0 .203-.002.272.047.267.26l-.008.586.003 1.172c.47-.762 1.043-1.375 1.847-1.76.769-.37 1.583-.433 2.417-.414zm40.548-3.87c-.013 1.253 0 2.507-.011 3.76-.002.222.06.279.277.276.817-.013 1.634.003 2.451-.011.227-.004.283.067.28.283-.01.907-.01 1.813 0 2.72.003.215-.051.288-.279.284-.817-.014-1.634.002-2.451-.01-.217-.004-.279.051-.278.274.009 2.182 0 4.365.007 6.548.004 1.104.553 1.644 1.657 1.652.47.003.94.009 1.41-.004.195-.005.275.033.272.253-.013.907-.005 1.813-.006 2.72l.001.09c-.001.089-.023.164-.172.16-1.217-.04-2.44.093-3.651-.12-1.789-.312-2.714-1.268-3.01-3.062-.202-1.225-.102-2.456-.129-3.684-.007-.314-.001-.627-.001-.94 0-1.198-.007-2.396.006-3.594.002-.233-.054-.3-.292-.295-.727.017-1.455 0-2.183.01-.205.004-.268-.055-.266-.262.01-.918.012-1.836-.001-2.754-.004-.238.092-.27.295-.268.716.01 1.433-.005 2.15.01.229.005.301-.048.297-.29-.015-.928 0-1.857-.01-2.786-.002-.206.037-.31.265-.368 1.026-.263 2.048-.544 3.066-.837.264-.076.309-.015.306.245zM30.066 9.354c.973.017 1.947.013 2.92.001.235-.003.327.034.327.303-.01 4.789-.009 9.577-.002 14.366 0 .224-.043.308-.29.305-1.018-.014-2.036-.015-3.054 0-.249.004-.286-.083-.285-.304.007-2.394.004-4.788.004-7.183 0-2.371.008-4.743-.008-7.115-.002-.32.097-.379.388-.373zm35.95 5.5c-.093.418-.098.417.314.417h2.985c1.018 0 2.035-.012 3.052.007.282.006.336-.092.312-.338-.074-.789-.368-1.457-.983-1.983-1.53-1.31-5.035-.966-5.68 1.897zM4.106 7.548c-.27-.002-.308.095-.304.329.012.85.004 1.7.004 2.549 0 .883.006 1.766-.004 2.65-.002.188.048.247.24.244.626-.012 1.253.005 1.879-.007 1.005-.018 2.012.063 3.015-.051 1.07-.122 1.9-.615 2.276-1.656.398-1.102.326-2.183-.43-3.134-.588-.741-1.437-.902-2.316-.912-1.453-.017-2.907.003-4.36-.012z" transform="translate(-30 -20) translate(30 19.5) translate(0 .5)"/>
                    <path fill="#13CE67" d="M35.666 3.113c-.214-.027-.351.084-.493.16-1.666.88-2.894 2.222-3.922 3.766-.128.192-.195.425-.29.64-.039.089-.103.158-.202.135-.095-.022-.096-.116-.082-.194.445-2.436 1.133-4.758 3.206-6.365C34.95.428 36.2.074 37.538.015c.997-.044 1.989.003 2.969.21.125.027.29.022.326.185.032.146-.109.205-.202.28-1.06.863-1.74 1.975-1.921 3.317-.35 2.61-2.156 4.084-4.57 4.531-.75.139-1.507.185-2.27.088-.654-.083-.78-.292-.465-.89.959-1.81 2.237-3.336 4.003-4.418.067-.04.134-.081.198-.125.017-.011.026-.034.06-.08" transform="translate(-30 -20) translate(30 19.5) translate(0 .5)"/>
                </g>
            </g>
        </g>
    </g>
</svg>
